<svg width="161" height="40" viewBox="0 0 161 40" fill="none" xmlns="http://www.w3.org/2000/svg">
<path d="M30.9716 27.4639V33.0152C30.9716 33.3937 30.8212 33.7568 30.5535 34.0245C30.2858 34.2922 29.9227 34.4426 29.5441 34.4426H25.3898C25.0112 34.4426 24.6481 34.2922 24.3804 34.0245C24.1127 33.7568 23.9624 33.3937 23.9624 33.0152V27.4639C23.9624 25.6033 23.2232 23.819 21.9076 22.5033C20.592 21.1877 18.8076 20.4486 16.947 20.4486C15.0865 20.4486 13.3021 21.1877 11.9864 22.5033C10.6708 23.819 9.93172 25.6033 9.93172 27.4639V33.0457C9.93172 33.4242 9.78133 33.7873 9.51363 34.055C9.24592 34.3227 8.88284 34.4731 8.50425 34.4731H4.34997C3.97138 34.4731 3.6083 34.3227 3.34059 34.055C3.07289 33.7873 2.92248 33.4242 2.92248 33.0457V27.5249L0.421386 25.0177C0.288035 24.8856 0.182186 24.7283 0.109949 24.555C0.0377124 24.3817 0.000521264 24.1958 0.000521264 24.0081C0.000521264 23.8204 0.0377124 23.6345 0.109949 23.4612C0.182186 23.2879 0.288035 23.1306 0.421386 22.9985L1.87934 21.5039C2.01269 21.3718 2.11854 21.2145 2.19078 21.0412C2.26302 20.868 2.30021 20.6821 2.30021 20.4943C2.30021 20.3066 2.26302 20.1207 2.19078 19.9474C2.11854 19.7742 2.01269 19.6169 1.87934 19.4848L0.47018 18.0695C0.537283 18.1244 0.610497 18.1793 0.6715 18.2403L0.421386 17.9902C0.287849 17.8575 0.181858 17.6997 0.10954 17.5259C0.0372216 17.3521 0 17.1658 0 16.9775C0 16.7893 0.0372216 16.6029 0.10954 16.4291C0.181858 16.2553 0.287849 16.0976 0.421386 15.9649L1.90986 14.4703C2.1794 14.2036 2.54328 14.054 2.92248 14.054C3.30169 14.054 3.66559 14.2036 3.93513 14.4703L5.42971 15.9649C5.56186 16.0982 5.71912 16.2041 5.8924 16.2763C6.06569 16.3486 6.25156 16.3858 6.4393 16.3858C6.62704 16.3858 6.81292 16.3486 6.9862 16.2763C7.15949 16.2041 7.31675 16.0982 7.4489 15.9649L9.95002 13.4638L12.4572 10.9566C12.7257 10.6902 13.0886 10.5408 13.4668 10.5408C13.845 10.5408 14.2079 10.6902 14.4764 10.9566L16.9836 13.4638C20.6921 13.4751 24.2453 14.9541 26.8664 17.5775C29.4876 20.201 30.9635 23.7554 30.9716 27.4639ZM8.95567 19.4603L7.46109 17.9658C7.32894 17.8324 7.1717 17.7266 6.99841 17.6543C6.82513 17.5821 6.63924 17.5449 6.4515 17.5449C6.26376 17.5449 6.07788 17.5821 5.9046 17.6543C5.73131 17.7266 5.57405 17.8324 5.4419 17.9658L3.94735 19.4603C3.81399 19.5925 3.70815 19.7498 3.63591 19.923C3.56367 20.0963 3.52648 20.2822 3.52648 20.4699C3.52648 20.6577 3.56367 20.8436 3.63591 21.0168C3.70815 21.1901 3.81399 21.3474 3.94735 21.4795L5.4419 22.9741C5.71041 23.2405 6.07329 23.3899 6.4515 23.3899C6.8297 23.3899 7.19259 23.2405 7.46109 22.9741L8.95567 21.4795C9.22202 21.211 9.37147 20.8481 9.37147 20.4699C9.37147 20.0917 9.22202 19.7289 8.95567 19.4603ZM15.9832 5.42971C16.2527 5.69644 16.6166 5.84605 16.9958 5.84605C17.375 5.84605 17.7389 5.69644 18.0085 5.42971L19.4969 3.93513C19.6303 3.80298 19.7361 3.64574 19.8084 3.47246C19.8806 3.29917 19.9178 3.11328 19.9178 2.92554C19.9178 2.7378 19.8806 2.55192 19.8084 2.37864C19.7361 2.20535 19.6303 2.04809 19.4969 1.91594L18.0085 0.421386C17.8758 0.287849 17.718 0.181858 17.5442 0.10954C17.3704 0.0372216 17.1841 0 16.9958 0C16.8076 0 16.6212 0.0372216 16.4474 0.10954C16.2736 0.181858 16.1159 0.287849 15.9832 0.421386L14.4825 1.90375C14.2162 2.17226 14.0667 2.53514 14.0667 2.91334C14.0667 3.29155 14.2162 3.65443 14.4825 3.92294L15.9832 5.42971ZM5.4419 8.94347C5.71041 9.20983 6.07329 9.35927 6.4515 9.35927C6.8297 9.35927 7.19259 9.20983 7.46109 8.94347L8.95567 7.394C9.22202 7.12549 9.37147 6.76261 9.37147 6.3844C9.37147 6.0062 9.22202 5.64331 8.95567 5.37481L7.46109 3.88023C7.32894 3.74688 7.1717 3.64103 6.99841 3.5688C6.82513 3.49656 6.63924 3.45937 6.4515 3.45937C6.26376 3.45937 6.07788 3.49656 5.9046 3.5688C5.73131 3.64103 5.57405 3.74688 5.4419 3.88023L3.94735 5.37481C3.81399 5.50696 3.70815 5.66422 3.63591 5.8375C3.56367 6.01079 3.52648 6.19666 3.52648 6.3844C3.52648 6.57214 3.56367 6.75802 3.63591 6.9313C3.70815 7.10459 3.81399 7.26185 3.94735 7.394L5.4419 8.94347Z" fill="url(#paint0_radial_409_90)"/>
<path d="M52.8776 26.6647V34.1009H49.4859V27.842C49.4859 26.6219 49.4859 23.5718 46.6431 23.5718C45.4841 23.5718 43.8187 24.0598 43.8187 27.354V34.0643H40.4269V20.845H43.3978V22.2054C43.9462 21.621 44.6145 21.162 45.3567 20.8598C46.099 20.5577 46.8978 20.4194 47.6985 20.4546C52.8776 20.4546 52.8776 25.5605 52.8776 26.6647Z" fill="#071D49"/>
<path d="M58.2337 28.4094C58.4777 30.3004 59.533 31.3558 61.3387 31.3558C61.913 31.3905 62.4841 31.2491 62.9758 30.9504C63.4674 30.6517 63.8562 30.21 64.09 29.6843L67.4268 30.642C66.9409 31.7972 66.1195 32.7798 65.0689 33.4628C64.0183 34.1459 62.7868 34.4978 61.5339 34.473C57.4589 34.473 54.6345 31.6242 54.6345 27.6468C54.6345 23.2973 57.4101 20.479 61.3448 20.479C65.5174 20.479 67.9514 23.5962 67.5427 28.4094H58.2337ZM58.3191 25.9265H64.1632C63.9313 24.1331 63.0956 23.3766 61.4851 23.3766C59.6916 23.3766 58.6607 24.2429 58.3191 25.9265Z" fill="#071D49"/>
<path d="M79.5236 30.1235L82.9398 29.6111C83.2082 30.8617 84.2147 31.5998 85.6849 31.5998C86.905 31.5998 87.576 31.1057 87.576 30.276C87.576 29.4464 87.2588 29.3183 84.3855 28.5558C81.1463 27.72 79.9689 26.6891 79.9689 24.6516C79.9689 22.0956 82.0308 20.479 85.2457 20.479C88.3629 20.479 90.5224 21.998 90.8701 24.4076L87.454 25.0176C87.332 24.0355 86.5694 23.4498 85.3189 23.3461C84.0683 23.2424 83.2814 23.7182 83.2814 24.4808C83.2814 25.2433 83.7206 25.3897 86.8196 26.1706C89.9185 26.9514 90.9922 28.0372 90.9922 30.0991C90.9922 32.826 88.9059 34.473 85.4409 34.473C82.104 34.473 79.9689 32.8992 79.5236 30.1235Z" fill="#071D49"/>
<path d="M119.2 25.9997V34.1009H116.278V32.4843C115.742 33.1574 115.051 33.69 114.263 34.0365C113.476 34.3829 112.616 34.5327 111.757 34.473C108.909 34.473 107.335 32.643 107.335 30.4469C107.335 28.6168 108.097 27.2259 110.232 26.4451C112.087 25.9055 113.985 25.5319 115.906 25.3287C115.771 24.1087 115.046 23.4986 113.466 23.4986C112.91 23.4587 112.356 23.593 111.88 23.8827C111.405 24.1725 111.031 24.6033 110.812 25.1152L107.78 24.1819C108.445 21.998 110.257 20.479 113.453 20.479C115.784 20.479 117.724 21.089 118.633 22.8825C119.089 23.8546 119.285 24.929 119.2 25.9997ZM115.881 28.025C114.558 28.1959 113.252 28.4796 111.977 28.873C110.995 29.2695 110.605 29.7331 110.605 30.398C110.605 31.307 111.318 31.8438 112.471 31.8438C113.093 31.8596 113.708 31.7027 114.246 31.3904C114.785 31.0781 115.226 30.6227 115.521 30.0747C115.776 29.4222 115.899 28.7254 115.881 28.025Z" fill="#071D49"/>
<path d="M121.201 27.476C121.201 23.4498 123.781 20.479 127.832 20.479C130.949 20.479 133.206 22.1688 133.798 24.8956L130.455 25.7801C130.319 25.169 129.982 24.6212 129.497 24.2251C129.013 23.8289 128.409 23.6074 127.783 23.5962C125.666 23.5962 124.733 25.2616 124.733 27.476C124.733 29.6904 125.77 31.3558 127.783 31.3558C129.277 31.3558 129.991 30.6421 130.382 29.3671L133.798 30.0747C133.035 32.8992 130.851 34.473 127.783 34.473C123.641 34.473 121.201 31.4534 121.201 27.476Z" fill="#071D49"/>
<path d="M138.282 28.4094C138.526 30.3004 139.581 31.3558 141.387 31.3558C141.961 31.3905 142.532 31.2491 143.024 30.9504C143.515 30.6517 143.904 30.21 144.138 29.6843L147.475 30.642C146.989 31.7972 146.167 32.7798 145.117 33.4628C144.066 34.1459 142.835 34.4978 141.582 34.473C137.507 34.473 134.682 31.6242 134.682 27.6468C134.682 23.2973 137.458 20.479 141.393 20.479C145.565 20.479 147.999 23.5962 147.591 28.4094H138.282ZM138.367 25.9265H144.211C143.979 24.1331 143.143 23.3766 141.533 23.3766C139.715 23.3766 138.684 24.2429 138.343 25.9265H138.367Z" fill="#071D49"/>
<path d="M149.116 30.1235L152.532 29.6111C152.8 30.8617 153.807 31.5998 155.283 31.5998C156.503 31.5998 157.174 31.1057 157.174 30.276C157.174 29.4464 156.851 29.3183 153.978 28.5558C150.738 27.72 149.561 26.6891 149.561 24.6516C149.561 22.0956 151.623 20.479 154.838 20.479C157.955 20.479 160.12 21.998 160.462 24.4076L157.046 25.0176C156.924 24.0355 156.168 23.4498 154.911 23.3461C153.654 23.2424 152.873 23.7182 152.873 24.4808C152.873 25.2433 153.319 25.3897 156.412 26.1706C159.504 26.9514 160.584 28.0372 160.584 30.0991C160.584 32.826 158.498 34.473 155.033 34.473C151.702 34.473 149.561 32.8992 149.116 30.1235Z" fill="#071D49"/>
<path d="M73.9541 23.7854H77.785V20.8451H73.9541V17.8987H72.734L68.3479 22.2848V23.7854H70.605V28.4827C70.605 30.0748 70.483 31.2583 71.1479 32.46C72.2277 34.3999 75.0216 34.6195 77.7728 34.101V31.3315C76.2051 31.5511 74.802 31.5999 74.2164 30.6666C73.8931 30.1724 73.9419 29.3184 73.9419 28.2875L73.9541 23.7854Z" fill="#071D49"/>
<path d="M99.557 20.479C98.3259 20.448 97.1209 20.8375 96.1408 21.5832V20.845H93.1944V39.9999H94.2498L96.5617 37.6879V33.6251C97.5142 34.2049 98.613 34.4992 99.7278 34.473C103.388 34.473 105.828 31.4534 105.828 27.476C105.828 23.4986 103.364 20.479 99.557 20.479ZM99.191 31.5022C96.9522 31.5022 96.1408 29.8795 96.1408 27.476C96.1408 25.0725 96.9766 23.4498 99.0629 23.4498C101.302 23.4498 102.308 25.2799 102.308 27.476C102.308 29.6721 101.35 31.5022 99.191 31.5022Z" fill="#071D49"/>
<defs>
<radialGradient id="paint0_radial_409_90" cx="0" cy="0" r="1" gradientUnits="userSpaceOnUse" gradientTransform="translate(-4.78825 31.1851) scale(39.3224 39.3224)">
<stop offset="0.35" stop-color="#FF3E7D"/>
<stop offset="0.52" stop-color="#A778FF"/>
<stop offset="0.65" stop-color="#4EA9FE"/>
<stop offset="0.79" stop-color="#13DDFD"/>
</radialGradient>
</defs>
</svg>
